<svg width="25" height="25" viewBox="0 0 25 25" fill="none" xmlns="http://www.w3.org/2000/svg">
<path d="M11.1216 4.55225H4.12158C3.59115 4.55225 3.08244 4.76296 2.70737 5.13803C2.3323 5.51311 2.12158 6.02181 2.12158 6.55225V20.5522C2.12158 21.0827 2.3323 21.5914 2.70737 21.9665C3.08244 22.3415 3.59115 22.5522 4.12158 22.5522H18.1216C18.652 22.5522 19.1607 22.3415 19.5358 21.9665C19.9109 21.5914 20.1216 21.0827 20.1216 20.5522V13.5522" stroke="white" stroke-width="2" stroke-linecap="round" stroke-linejoin="round"/>
<path d="M18.6216 3.05247C19.0194 2.65465 19.559 2.43115 20.1216 2.43115C20.6842 2.43115 21.2238 2.65465 21.6216 3.05247C22.0194 3.4503 22.2429 3.98986 22.2429 4.55247C22.2429 5.11508 22.0194 5.65465 21.6216 6.05247L12.1216 15.5525L8.12158 16.5525L9.12158 12.5525L18.6216 3.05247Z" stroke="white" stroke-width="2" stroke-linecap="round" stroke-linejoin="round"/>
</svg>
