<svg width="35" height="35" viewBox="0 0 35 35" fill="none" xmlns="http://www.w3.org/2000/svg">
<circle cx="17.5" cy="17.5" r="15.5" stroke="#FF9900" stroke-width="4"/>
<path d="M26.0757 10.6153C25.9033 10.6153 25.7319 10.554 25.5948 10.4275C23.493 8.49933 20.7959 7.4375 17.9999 7.4375C15.2038 7.4375 12.5068 8.49933 10.405 10.4285C10.1126 10.6958 9.66122 10.6738 9.39551 10.3815C9.12981 10.0883 9.15076 9.63304 9.44218 9.36567C11.8087 7.19504 14.8476 6 17.9999 6C21.1521 6 24.191 7.19504 26.5576 9.36567C26.849 9.63304 26.8699 10.0873 26.6042 10.3815C26.4633 10.5368 26.27 10.6153 26.0757 10.6153Z" fill="#FF9C06"/>
<path d="M27.2852 15.3121C27.0556 15.3121 26.829 15.201 26.6919 14.994C24.7091 12.0231 21.4597 10.2492 17.9999 10.2492C14.54 10.2492 11.2907 12.0231 9.3079 14.994C9.08791 15.3246 8.64317 15.4118 8.31652 15.1904C7.98891 14.969 7.9013 14.5225 8.12129 14.1928C10.3698 10.8242 14.0629 8.81271 17.9999 8.81271C21.9368 8.81271 25.63 10.8243 27.8785 14.1938C28.0985 14.5234 28.0118 14.97 27.6832 15.1914C27.5613 15.2728 27.4232 15.3121 27.2852 15.3121Z" fill="#FF9C06"/>
<path d="M15.7438 29C15.56 29 15.3762 28.9291 15.2362 28.7873C15.08 28.6291 11.4202 24.8696 11.4202 21.25C11.4202 17.4933 14.3715 14.4372 17.9999 14.4372C21.6283 14.4372 24.5796 17.4933 24.5796 21.25C24.5796 21.6467 24.2596 21.9687 23.8653 21.9687C23.4711 21.9687 23.1511 21.6467 23.1511 21.25C23.1511 18.2858 20.8407 15.8747 17.9999 15.8747C15.1591 15.8747 12.8487 18.2858 12.8487 21.25C12.8487 24.285 16.2171 27.7408 16.2514 27.7753C16.5295 28.057 16.5276 28.5122 16.2466 28.792C16.1076 28.931 15.9257 29 15.7438 29Z" fill="#FF9C06"/>
<path d="M20.256 29C18.5379 29 14.5553 25.711 14.1696 22.0483C14.0334 20.7535 14.4429 19.4291 15.2638 18.5053C15.9781 17.7022 16.9428 17.2566 17.9799 17.2508H17.9999C19.0113 17.2508 19.9674 17.6505 20.695 18.3778C21.455 19.1378 21.873 20.1584 21.873 21.2509V21.7195C21.873 22.8743 22.7663 23.8135 23.8653 23.8135C24.9643 23.8135 25.8586 22.8743 25.8586 21.7195V21.5557C25.8586 17.0803 22.6368 13.3571 18.5237 13.0811C16.38 12.9345 14.322 13.6801 12.7344 15.1732C11.0869 16.7237 10.1421 18.9394 10.1421 21.2509C10.1421 23.1522 10.7821 25.0047 11.944 26.4671C12.1897 26.7776 12.1401 27.229 11.8316 27.4772C11.524 27.7254 11.0745 27.6756 10.8278 27.3641C9.46503 25.6477 8.71364 23.4762 8.71364 21.25C8.71364 18.5417 9.82407 15.9437 11.7583 14.1228C13.6372 12.3537 16.0743 11.473 18.6179 11.6455C23.4787 11.9723 27.2871 16.3251 27.2871 21.5547V21.7186C27.2871 23.6659 25.7519 25.25 23.8653 25.25C21.9787 25.25 20.4445 23.6659 20.4445 21.7186V21.25C20.4445 20.5427 20.176 19.8853 19.6884 19.3965C19.2312 18.9385 18.6322 18.6874 18.0008 18.6874C17.9961 18.6874 17.9923 18.6874 17.9875 18.6874C17.1828 18.6912 16.6409 19.1119 16.3285 19.4636C15.7714 20.0894 15.4952 20.9998 15.5895 21.8968C15.9047 24.8849 19.317 27.5635 20.256 27.5635C20.6502 27.5635 20.9702 27.8855 20.9702 28.2822C20.9702 28.679 20.6502 29 20.256 29Z" fill="#FF9C06"/>
<path d="M22.9063 27.5941C20.3502 27.5941 17.2294 24.4508 17.2294 20.7813C17.2294 20.3846 17.5494 20.0626 17.9437 20.0626C18.338 20.0626 18.6579 20.3846 18.6579 20.7813C18.6579 23.6257 21.034 26.1566 22.9063 26.1566C23.3006 26.1566 23.6206 26.4786 23.6206 26.8754C23.6206 27.2721 23.3006 27.5941 22.9063 27.5941Z" fill="#FF9C06"/>
</svg>
