<svg width="35" height="35" viewBox="0 0 35 35" fill="none" xmlns="http://www.w3.org/2000/svg">
<circle cx="17.5" cy="17.5" r="15.5" stroke="#E30000" stroke-width="4"/>
<path d="M25.6146 25.9998H9.38542C8.62146 25.9998 8 25.3784 8 24.6144V22.6353C8 21.8713 8.62146 21.2498 9.38542 21.2498H25.6146C26.3785 21.2498 27 21.8713 27 22.6353V24.6144C27 25.3784 26.3785 25.9998 25.6146 25.9998ZM9.38542 22.4373C9.27617 22.4373 9.1875 22.526 9.1875 22.6353V24.6144C9.1875 24.7237 9.27617 24.8123 9.38542 24.8123H25.6146C25.7238 24.8123 25.8125 24.7237 25.8125 24.6144V22.6353C25.8125 22.526 25.7238 22.4373 25.6146 22.4373H9.38542Z" fill="#E30000"/>
<path d="M22.4479 22.2394C22.1202 22.2394 21.8542 21.9734 21.8542 21.6457V18.0832C21.8542 15.682 19.9003 13.729 17.5 13.729C15.0997 13.729 13.1458 15.682 13.1458 18.0832V21.6457C13.1458 21.9734 12.8798 22.2394 12.5521 22.2394C12.2243 22.2394 11.9583 21.9734 11.9583 21.6457V18.0832C11.9583 15.0273 14.445 12.5415 17.5 12.5415C20.555 12.5415 23.0417 15.0273 23.0417 18.0832V21.6457C23.0417 21.9734 22.7757 22.2394 22.4479 22.2394Z" fill="#E30000"/>
<path d="M14.9271 18.6769C14.5993 18.6769 14.3333 18.4109 14.3333 18.0832C14.3333 16.3368 15.7536 14.9165 17.5 14.9165C17.8277 14.9165 18.0937 15.1825 18.0937 15.5103C18.0937 15.838 17.8277 16.104 17.5 16.104C16.4083 16.104 15.5208 16.9923 15.5208 18.0832C15.5208 18.4109 15.2548 18.6769 14.9271 18.6769Z" fill="#E30000"/>
<path d="M17.5 10.9583C17.1722 10.9583 16.9062 10.6923 16.9062 10.3646V7.59375C16.9062 7.266 17.1722 7 17.5 7C17.8277 7 18.0937 7.266 18.0937 7.59375V10.3646C18.0937 10.6923 17.8277 10.9583 17.5 10.9583Z" fill="#E30000"/>
<path d="M22.0521 12.5417C21.9001 12.5417 21.7481 12.4839 21.6325 12.3675C21.4005 12.1355 21.4005 11.7595 21.6325 11.5275L23.5919 9.56817C23.8238 9.33621 24.1999 9.33621 24.4318 9.56817C24.6638 9.80013 24.6638 10.1762 24.4318 10.4081L22.4717 12.3675C22.3561 12.4839 22.2041 12.5417 22.0521 12.5417Z" fill="#E30000"/>
<path d="M12.9479 12.5417C12.7959 12.5417 12.6439 12.4839 12.5283 12.3675L10.569 10.4081C10.337 10.1762 10.337 9.80013 10.569 9.56817C10.8009 9.33621 11.177 9.33621 11.4089 9.56817L13.3675 11.5283C13.5995 11.7603 13.5995 12.1363 13.3675 12.3683C13.2519 12.4839 13.0999 12.5417 12.9479 12.5417Z" fill="#E30000"/>
<path d="M9.78125 17.0937H8.59375C8.266 17.0937 8 16.8277 8 16.5C8 16.1722 8.266 15.9062 8.59375 15.9062H9.78125C10.109 15.9062 10.375 16.1722 10.375 16.5C10.375 16.8277 10.109 17.0937 9.78125 17.0937Z" fill="#E30000"/>
<path d="M26.4062 17.0937H25.2187C24.891 17.0937 24.625 16.8277 24.625 16.5C24.625 16.1722 24.891 15.9062 25.2187 15.9062H26.4062C26.734 15.9062 27 16.1722 27 16.5C27 16.8277 26.734 17.0937 26.4062 17.0937Z" fill="#E30000"/>
</svg>
