<svg width="25" height="25" viewBox="0 0 25 25" fill="none" xmlns="http://www.w3.org/2000/svg">
<g clip-path="url(#clip0)">
<path d="M11.3513 4.11584H4.35126C3.82082 4.11584 3.31212 4.32656 2.93704 4.70163C2.56197 5.0767 2.35126 5.58541 2.35126 6.11584V20.1158C2.35126 20.6463 2.56197 21.155 2.93704 21.5301C3.31212 21.9051 3.82082 22.1158 4.35126 22.1158H18.3513C18.8817 22.1158 19.3904 21.9051 19.7655 21.5301C20.1405 21.155 20.3513 20.6463 20.3513 20.1158V13.1158" stroke="black" stroke-width="2" stroke-linecap="round" stroke-linejoin="round"/>
<path d="M18.8513 2.61583C19.2491 2.218 19.7886 1.99451 20.3513 1.99451C20.9139 1.99451 21.4534 2.218 21.8513 2.61583C22.2491 3.01365 22.4726 3.55322 22.4726 4.11583C22.4726 4.67844 22.2491 5.218 21.8513 5.61583L12.3513 15.1158L8.35126 16.1158L9.35126 12.1158L18.8513 2.61583Z" stroke="black" stroke-width="2" stroke-linecap="round" stroke-linejoin="round"/>
</g>
<defs>
<clipPath id="clip0">
<rect width="24" height="24" fill="white" transform="translate(0.351257 0.115845)"/>
</clipPath>
</defs>
</svg>
