<svg width="25" height="25" viewBox="0 0 25 25" fill="none" xmlns="http://www.w3.org/2000/svg">
<g clip-path="url(#clip0)">
<path d="M14.8124 14.4362C14.5377 14.7309 14.2065 14.9673 13.8385 15.1313C13.4705 15.2953 13.0733 15.3834 12.6705 15.3906C12.2677 15.3977 11.8675 15.3236 11.494 15.1727C11.1204 15.0218 10.7811 14.7972 10.4962 14.5123C10.2114 14.2275 9.98678 13.8881 9.83589 13.5146C9.68501 13.141 9.61091 12.7409 9.61802 12.3381C9.62512 11.9353 9.71329 11.538 9.87726 11.17C10.0412 10.802 10.2776 10.4708 10.5724 10.1962M18.6324 18.2562C16.923 19.5592 14.8415 20.2811 12.6924 20.3162C5.69238 20.3162 1.69238 12.3162 1.69238 12.3162C2.93627 9.99808 4.66152 7.97279 6.75238 6.37619L18.6324 18.2562ZM10.5924 4.55619C11.2807 4.39507 11.9854 4.31453 12.6924 4.31619C19.6924 4.31619 23.6924 12.3162 23.6924 12.3162C23.0854 13.4518 22.3614 14.5209 21.5324 15.5062L10.5924 4.55619Z" stroke="black" stroke-width="2" stroke-linecap="round" stroke-linejoin="round"/>
<path d="M1.69238 1.31616L23.6924 23.3162" stroke="black" stroke-width="2" stroke-linecap="round" stroke-linejoin="round"/>
</g>
<defs>
<clipPath id="clip0">
<rect width="24" height="24" fill="white" transform="translate(0.692383 0.316162)"/>
</clipPath>
</defs>
</svg>
