<svg width="15" height="13" viewBox="0 0 15 13" fill="none" xmlns="http://www.w3.org/2000/svg">
<path d="M14.7481 5.77565L8.01806 0.184094C7.72266 -0.0613736 7.2772 -0.0613469 6.98192 0.184067L0.251895 5.77568C0.0152649 5.97229 -0.0628989 6.27521 0.0527062 6.5474C0.168341 6.81958 0.449883 6.99543 0.770008 6.99543H1.84491V12.5978C1.84491 12.8199 2.04243 13 2.28603 13H5.9749C6.21851 13 6.41603 12.8199 6.41603 12.5978V9.1962H8.58404V12.5978C8.58404 12.8199 8.78156 13 9.02517 13H12.7139C12.9575 13 13.155 12.8199 13.155 12.5978V6.99543H14.2301C14.5502 6.99543 14.8318 6.81955 14.9474 6.5474C15.0629 6.27519 14.9847 5.97229 14.7481 5.77565Z" fill="#393939"/>
<path d="M13.0398 0.802852H10.0773L13.4809 3.62473V1.20505C13.4809 0.982926 13.2834 0.802852 13.0398 0.802852Z" fill="#393939"/>
</svg>
