<svg width="67" height="82" viewBox="0 0 67 82" fill="none" xmlns="http://www.w3.org/2000/svg">
<path d="M65.1919 19.9227L36.0347 0.805501C34.5302 -0.2685 32.5243 -0.2685 31.0199 0.805501L1.79099 19.9227C0.644755 20.7103 0 22.0707 0 23.4311V57.1548C0 58.5152 0.644755 59.8756 1.79099 60.6632L30.9483 80.21C32.4527 81.284 34.4586 81.284 35.963 80.21L65.1919 60.6632C66.3382 59.8756 66.9829 58.5152 66.9829 57.1548V23.4311C66.9829 22.0707 66.3382 20.7103 65.1919 19.9227Z" fill="#FF103E"/>
<path opacity="0.5" d="M5.22965 23.932C1.71931 22.0704 1.50439 24.29 1.50439 24.29V57.0112C1.50439 58.3716 2.14915 59.5889 3.22374 60.3765L31.5213 79.3505C32.2377 79.8517 33.0974 80.1381 33.9571 80.1381V42.906C33.9571 42.906 8.73998 25.7936 5.22965 23.932Z" fill="#D30032"/>
<path d="M62.3979 23.932C65.9082 22.0704 66.1231 24.29 66.1231 24.29V57.0112C66.1231 58.3716 65.4784 59.5889 64.4038 60.3765L36.1778 79.3505C35.4614 79.8517 34.6018 80.1381 33.7421 80.1381V42.906C33.6705 42.906 58.8876 25.7936 62.3979 23.932Z" fill="#D30032"/>
<path d="M57.4548 24.2183L52.4401 20.9963C51.7953 20.5667 51.0073 20.5667 50.4342 20.9963L33.5273 32.0227L16.6203 20.9963C15.9756 20.5667 15.1876 20.6383 14.5428 21.0679L9.67132 24.2183C9.16984 24.5763 8.81165 25.1491 8.81165 25.7219V55.6507C8.81165 56.1519 9.02656 56.5815 9.4564 56.8679L16.4054 61.3071C16.8353 61.5935 17.4084 61.5935 17.8382 61.3787C18.2681 61.0923 18.5546 60.6627 18.5546 60.0899L18.4113 34.0275C18.4113 34.0275 18.4113 33.8843 18.4113 33.6695C18.4113 33.5263 18.4113 33.4547 18.4113 33.3115L32.596 42.6911C32.8825 42.8343 33.1691 42.9775 33.4556 42.9775C33.8138 42.9775 34.1004 42.9059 34.3153 42.7627L48.4999 33.5263C48.4999 33.6695 48.4999 33.7411 48.4999 33.8127L48.3566 60.1615C48.3566 60.6627 48.6432 61.1639 49.073 61.4503C49.288 61.5935 49.5029 61.5935 49.7894 61.5935C50.076 61.5935 50.3625 61.5219 50.5775 61.3787L57.5981 56.8679C58.028 56.5815 58.2429 56.1519 58.2429 55.6507V25.7219C58.2429 25.1491 57.9563 24.5763 57.4548 24.2183ZM55.8071 55.1495L50.864 58.2999L51.0073 33.8127C51.0073 31.0203 50.864 30.5907 50.2193 30.2327C50.2193 30.2327 49.6461 29.8747 49.1447 30.1611C48.6432 30.5191 33.5273 40.3283 33.5273 40.3283L17.9815 30.1611C17.9815 30.1611 17.48 29.7315 16.692 30.0895C15.904 30.4475 15.9756 30.9487 16.0472 33.8127L16.1905 58.2999L11.2474 55.1495V26.0799L15.6174 23.2875L32.7392 34.3855C33.2407 34.6719 33.8138 34.6719 34.3153 34.3855L35.5332 33.5979L35.8197 33.3831L51.4371 23.2159L55.8071 26.0083V55.1495Z" fill="white"/>
<path d="M40.906 17.7744L34.0287 13.4068L33.8137 13.2635H33.4555C33.3839 13.2635 33.2406 13.3352 33.169 13.3352L26.7214 17.4164L26.3632 17.6312C26.22 17.7028 26.1483 17.9176 26.1483 18.0608C26.1483 18.204 26.22 18.4188 26.3632 18.4904L27.5095 19.278H27.5811C27.6527 19.278 27.6527 19.3496 27.7244 19.3496H27.796C27.8677 19.3496 27.8677 19.3496 27.9393 19.3496C28.0109 19.3496 28.0109 19.3496 28.0826 19.3496H28.1542C28.2259 19.3496 28.2975 19.278 28.3691 19.278L33.3123 16.1992L33.6705 15.9844L39.0434 19.3496C39.1867 19.4212 39.33 19.4928 39.4016 19.4928C39.5449 19.4928 39.6882 19.4212 39.8315 19.3496L40.9777 18.562C41.121 18.4904 41.1926 18.2756 41.1926 18.1324C41.1926 18.0608 41.121 17.9176 40.906 17.7744Z" fill="white"/>
<path d="M36.2496 20.2087L33.9571 18.7051C33.9571 18.7051 33.6706 18.4903 33.3124 18.6335C33.2407 18.6335 33.1691 18.7051 33.1691 18.7051L31.808 19.5643L30.9483 20.1371C30.7334 20.2803 30.5901 20.4951 30.5901 20.7815C30.5901 20.9963 30.6617 21.2111 30.805 21.2827L30.8766 21.3543L33.1691 22.8579C33.2407 22.8579 33.3124 22.9295 33.3124 22.9295C33.384 22.9295 33.384 22.9295 33.4557 22.9295H33.5273C33.5273 22.9295 33.6706 22.9295 33.8855 22.8579C33.9571 22.8579 33.9571 22.8579 33.9571 22.8579L36.2496 21.3543C36.4645 21.2111 36.6078 20.9963 36.6078 20.7099C36.5362 20.5667 36.4645 20.3519 36.2496 20.2087Z" fill="white"/>
<path d="M22.2081 15.698V15.7696C22.2798 15.8412 22.2798 15.9128 22.3514 15.9844L23.6409 16.772C23.7125 16.772 23.7125 16.8436 23.7842 16.8436C23.7842 16.8436 23.7842 16.8436 23.8558 16.8436C23.9275 16.8436 23.9275 16.8436 23.9991 16.8436H24.0707H24.1424C24.214 16.8436 24.214 16.8436 24.2857 16.772L33.3122 11.1156L33.5988 10.9724L42.8403 16.8436C42.9119 16.9152 43.0552 16.9152 43.1268 16.9152C43.2701 16.9152 43.3418 16.9152 43.4134 16.8436L44.7029 16.056C44.8462 15.9128 44.9178 15.7696 44.9178 15.6264C44.9178 15.4116 44.8462 15.2684 44.6313 15.1968C44.6313 15.1968 34.0286 8.32315 33.8853 8.25155C33.7421 8.17995 33.3839 8.25155 33.3839 8.25155C33.3122 8.25155 33.2406 8.32315 33.169 8.32315L22.3514 15.1968L22.2798 15.2684L22.2081 15.34V15.4116C22.2081 15.4832 22.1365 15.4832 22.1365 15.5548C22.1365 15.6264 22.2081 15.698 22.2081 15.698Z" fill="white"/>
</svg>
