<svg width="436" height="81" viewBox="0 0 436 81" fill="none" xmlns="http://www.w3.org/2000/svg">
<path d="M82.5769 26.6266L81.4379 28.6899C81.2955 28.9745 81.5091 29.2591 81.7938 29.2591L136.607 29.5436C137.604 29.5436 138.529 29.0456 139.028 28.1918L140.807 25.346C140.95 25.0614 140.807 24.7768 140.451 24.7768L86.1362 24.4922C84.6413 24.4922 83.2887 25.346 82.5769 26.6266Z" fill="white"/>
<path d="M139.526 39.5754L138.244 38.0813C137.461 37.1564 136.394 36.6584 135.183 36.6584L81.8647 36.3738C81.58 36.3738 81.3664 36.7295 81.5088 36.943L83.2173 39.5754C83.858 40.5715 84.9258 41.1407 86.0647 41.1407L135.966 41.3541C136.322 41.3541 132.692 43.9154 132.692 44.2V51.0301C132.692 51.3859 132.407 51.5993 132.051 51.5993L84.2139 51.3859C82.9325 51.3859 81.7224 52.1685 81.2241 53.3068L80.2274 55.5836C80.0851 55.8681 80.2986 56.1527 80.5834 56.1527L134.614 56.4373C135.682 56.4373 136.678 56.0104 137.461 55.299L139.241 53.5203C140.024 52.7377 140.451 51.7416 140.451 50.6744L140.522 42.0656C140.451 41.2118 140.166 40.2869 139.526 39.5754Z" fill="white"/>
<path d="M262.322 28.2631L261.041 26.769C260.258 25.844 259.19 25.346 257.98 25.346L211.21 25.1326C210.071 25.1326 208.932 25.6306 208.149 26.5555L206.868 28.0496C206.227 28.7611 205.871 29.686 205.871 30.6821L205.729 50.9591C205.729 52.0263 206.085 52.7377 206.939 53.8049L208.719 55.5836C210.143 56.7931 210.499 56.722 211.566 56.722L257.339 56.9354C258.407 56.9354 259.404 56.5085 260.187 55.7971L261.966 54.0895C262.749 53.3069 263.176 52.3109 263.176 51.2436L263.248 30.8955C263.319 29.9706 262.963 29.0457 262.322 28.2631ZM255.417 51.5994C255.417 51.9551 255.132 52.1686 254.776 52.1686L210 51.9551C210 51.9551 213.56 49.3227 213.56 49.2515L213.631 30.5398C213.631 30.184 213.915 29.9706 214.271 29.9706L259.617 30.184C259.973 30.184 255.488 34.4529 255.56 34.4529L255.417 51.5994Z" fill="white"/>
<path d="M164.085 25.2749H162.59H158.105H155.044C154.831 25.2749 154.688 25.4883 154.831 25.7018L157.536 30.0418L157.393 55.8683C157.393 56.4374 157.892 56.9355 158.461 56.9355H163.515C164.085 56.9355 164.583 56.4374 164.583 55.8683L164.726 25.9152C164.654 25.5595 164.441 25.2749 164.085 25.2749Z" fill="white"/>
<path d="M135.967 41.425C136.251 41.425 133.475 43.4172 132.834 44.1286L140.38 41.425" fill="#CBCBCB"/>
<path d="M275.777 27.5514L274.638 29.6147C274.495 29.8993 274.709 30.1839 274.994 30.1839L329.807 30.4685C330.804 30.4685 331.729 29.9704 332.227 29.1167L334.007 26.2708C334.149 25.9862 334.007 25.7016 333.651 25.7016L279.336 25.417C277.841 25.417 276.488 26.1996 275.777 27.5514Z" fill="white"/>
<path d="M332.725 40.5004L331.444 39.0063C330.661 38.0813 329.593 37.5833 328.383 37.5833L275.064 37.3699C274.78 37.3699 274.566 37.7256 274.709 37.9391L276.417 40.5715C277.058 41.5676 278.125 42.1367 279.264 42.1367L329.166 42.3502C329.522 42.3502 325.892 44.9115 325.892 45.1961V52.0262C325.892 52.382 325.607 52.5954 325.251 52.5954L277.414 52.382C276.132 52.382 274.922 53.1646 274.424 54.3029L273.427 56.5797C273.285 56.8642 273.498 57.1488 273.783 57.1488L327.814 57.4334C328.881 57.4334 329.878 57.0065 330.661 56.2951L332.441 54.5164C333.224 53.7338 333.651 52.7377 333.651 51.6705L333.722 43.0617C333.722 42.1367 333.366 41.2118 332.725 40.5004Z" fill="white"/>
<path d="M329.237 42.3501C329.593 42.3501 325.963 44.9114 325.963 45.196V52.0261C325.963 52.2396 325.82 52.453 325.607 52.5953L333.651 52.6665C333.722 52.3819 333.793 52.0261 333.793 51.7415L333.865 43.1327C333.865 42.8481 333.865 42.6347 333.793 42.3501" fill="#DCDCDC"/>
<path d="M329.238 42.3501C329.522 42.3501 326.746 44.3422 326.105 45.0537L333.651 42.3501" fill="#CBCBCB"/>
<path d="M158.461 56.8642H163.516C164.085 56.8642 164.583 56.3661 164.583 55.7969L164.655 40.1445L157.536 29.9705L157.394 55.7969C157.394 56.3661 157.821 56.8642 158.461 56.8642Z" fill="white"/>
<path d="M188.645 25.417H187.15H182.665H179.604C179.39 25.417 179.248 25.6304 179.39 25.8439L182.095 30.1839L181.953 56.0103C181.953 56.5795 182.451 57.0776 183.021 57.0776H188.075C188.645 57.0776 189.143 56.5795 189.143 56.0103L189.285 26.0573C189.285 25.7016 189 25.417 188.645 25.417Z" fill="white"/>
<path d="M183.021 57.0065H188.075C188.645 57.0065 189.143 56.5084 189.143 55.9393L189.214 40.2869L182.095 30.1128L181.953 55.9393C181.953 56.5084 182.451 57.0065 183.021 57.0065Z" fill="white"/>
<path d="M210 51.9548L207.224 54.0893L218.4 52.026L210 51.9548Z" fill="#CBCBCB"/>
<path d="M259.546 30.1841H263.034L255.488 34.4529" fill="#CBCBCB"/>
<path d="M359.207 31.9628L346.251 25.2749C346.038 25.1326 345.753 25.1326 345.539 25.2749L343.546 26.769C343.404 26.8402 343.404 27.0536 343.404 27.1959V27.2671V42.8483H347.177V29.3303L358.78 35.7336C359.065 35.8759 359.35 35.8759 359.634 35.7336" fill="#FC103D"/>
<path d="M374.94 27.1246C374.94 27.0534 374.868 27.0534 374.868 26.9823L372.804 25.4882C372.519 25.2748 372.235 25.2748 371.95 25.4882L359.207 31.9626L359.136 35.9469C359.207 35.9469 359.492 35.8757 359.563 35.8046L371.38 29.6859V42.7059C371.38 42.777 371.452 42.8482 371.523 42.8482H374.868C374.94 42.8482 375.011 42.777 375.011 42.7059V27.2669C375.082 27.1957 375.011 27.1246 374.94 27.1246Z" fill="#BA0024"/>
<path d="M393.732 26.1998V23.7808C393.59 23.7808 393.519 23.8519 393.377 23.9231L380.492 42.6348C380.421 42.7771 380.492 42.9194 380.634 42.9194H384.336C384.407 42.9194 384.478 42.9194 384.478 42.8483L393.732 29.3303V26.1998Z" fill="#FC103D"/>
<path d="M381.916 46.0498L381.987 46.1921V45.9075C381.916 45.9786 381.916 46.0498 381.916 46.0498Z" fill="#ED304A"/>
<path d="M393.946 23.8518C393.875 23.7806 393.733 23.7095 393.59 23.7095V26.1285V29.259L403.272 42.777C403.272 42.8481 403.343 42.8481 403.414 42.8481H407.329C407.472 42.8481 407.543 42.7058 407.472 42.5635L393.946 23.8518Z" fill="#BA0024"/>
<path d="M434.95 24.4922H416.014L409.892 33.6702C409.75 33.9548 409.75 34.2394 409.892 34.524L411.316 36.3738C412.526 35.9469 413.665 35.5912 414.804 35.0931L414.163 34.2394L418.007 28.1207H433.241C433.383 28.1207 433.455 28.0496 433.526 27.9073L435.163 25.1325C435.377 24.7768 435.234 24.4922 434.95 24.4922Z" fill="#FC103D"/>
<path d="M435.59 42.8481L434.238 40.0733C434.167 39.931 434.024 39.8599 433.882 39.8599H418.648H418.577L414.234 34.2393H409.821C409.821 34.3104 409.892 34.4527 409.963 34.5238L416.655 43.3461C416.726 43.3461 416.726 43.3461 416.797 43.3461H416.868H435.306C435.519 43.3461 435.662 43.0615 435.59 42.8481Z" fill="#BA0024"/>
<path d="M64.7797 19.7967L35.8068 0.800408C34.3119 -0.266803 32.3187 -0.266803 30.8237 0.800408L1.77966 19.7967C0.640678 20.5794 0 21.9312 0 23.283V56.7934C0 58.1452 0.640678 59.497 1.77966 60.2796L30.7526 79.7028C32.2475 80.77 34.2407 80.77 35.7356 79.7028L64.7797 60.2796C65.9187 59.497 66.5594 58.1452 66.5594 56.7934V23.283C66.5594 21.9312 65.9187 20.5794 64.7797 19.7967Z" fill="#FF103E"/>
<path opacity="0.5" d="M5.19681 23.7806C1.70868 21.9307 1.49512 24.1363 1.49512 24.1363V56.6506C1.49512 58.0024 2.1358 59.2119 3.20359 59.9946L31.3223 78.8486C32.0341 79.3466 32.8884 79.6312 33.7426 79.6312V42.6346C33.7426 42.6346 8.68495 25.6304 5.19681 23.7806Z" fill="#D30032"/>
<path d="M62.0031 23.7806C65.4912 21.9307 65.7048 24.1363 65.7048 24.1363V56.6506C65.7048 58.0024 65.0641 59.2119 63.9963 59.9946L35.9488 78.8486C35.2369 79.3466 34.3827 79.6312 33.5285 79.6312V42.6346C33.4573 42.6346 58.5149 25.6304 62.0031 23.7806Z" fill="#D30032"/>
<path d="M57.0915 24.0653L52.1084 20.8636C51.4677 20.4367 50.6847 20.4367 50.1152 20.8636L33.3152 31.8203L16.5152 20.8636C15.8745 20.4367 15.0915 20.5079 14.4508 20.9348L9.6101 24.0653C9.11179 24.421 8.75586 24.9902 8.75586 25.5593V55.2989C8.75586 55.797 8.96942 56.2239 9.39654 56.5084L16.3016 60.9196C16.7287 61.2042 17.2982 61.2042 17.7254 60.9907C18.1525 60.7061 18.4372 60.2792 18.4372 59.7101L18.2948 33.8124C18.2948 33.8124 18.2948 33.6701 18.2948 33.4567C18.2948 33.3144 18.2948 33.2433 18.2948 33.101L32.3898 42.4213C32.6745 42.5636 32.9593 42.7059 33.244 42.7059C33.5999 42.7059 33.8847 42.6347 34.0982 42.4924L48.1932 33.3144C48.1932 33.4567 48.1932 33.5278 48.1932 33.599L48.0508 59.7812C48.0508 60.2792 48.3355 60.7773 48.7627 61.0619C48.9762 61.2042 49.1898 61.2042 49.4745 61.2042C49.7593 61.2042 50.044 61.133 50.2576 60.9907L57.2338 56.5084C57.661 56.2239 57.8745 55.797 57.8745 55.2989V25.5593C57.8745 24.9902 57.5898 24.421 57.0915 24.0653ZM55.4542 54.8009L50.5423 57.9314L50.6847 33.599C50.6847 30.8242 50.5423 30.3974 49.9016 30.0416C49.9016 30.0416 49.3322 29.6859 48.8338 29.9705C48.3355 30.3262 33.3152 40.0734 33.3152 40.0734L17.8677 29.9705C17.8677 29.9705 17.3694 29.5436 16.5864 29.8993C15.8033 30.2551 15.8745 30.7531 15.9457 33.599L16.0881 57.9314L11.1762 54.8009V25.9151L15.5186 23.1403L32.5321 34.1682C33.0304 34.4528 33.5999 34.4528 34.0982 34.1682L35.3084 33.3856L35.5932 33.1721L51.1118 23.0692L55.4542 25.8439V54.8009Z" fill="white"/>
<path d="M40.6478 17.662L33.8139 13.322L33.6004 13.1797H33.2444C33.1732 13.1797 33.0309 13.2508 32.9597 13.2508L26.5529 17.3062L26.197 17.5197C26.0546 17.5908 25.9834 17.8043 25.9834 17.9466C25.9834 18.0889 26.0546 18.3023 26.197 18.3734L27.3359 19.1561H27.4071C27.4783 19.1561 27.4783 19.2272 27.5495 19.2272H27.6207C27.6919 19.2272 27.6919 19.2272 27.7631 19.2272C27.8342 19.2272 27.8342 19.2272 27.9054 19.2272H27.9766C28.0478 19.2272 28.119 19.1561 28.1902 19.1561L33.102 16.0967L33.458 15.8833L38.797 19.2272C38.9393 19.2984 39.0817 19.3695 39.1529 19.3695C39.2953 19.3695 39.4376 19.2984 39.58 19.2272L40.719 18.4446C40.8614 18.3734 40.9326 18.16 40.9326 18.0177C40.9326 17.9466 40.8614 17.8043 40.6478 17.662Z" fill="white"/>
<path d="M36.0202 20.081L33.7422 18.5869C33.7422 18.5869 33.4575 18.3734 33.1016 18.5157C33.0304 18.5157 32.9592 18.5869 32.9592 18.5869L31.6067 19.4406L30.7524 20.0098C30.5389 20.1521 30.3965 20.3655 30.3965 20.6501C30.3965 20.8636 30.4677 21.077 30.61 21.1482L30.6812 21.2193L32.9592 22.7134C33.0304 22.7134 33.1016 22.7846 33.1016 22.7846C33.1728 22.7846 33.1728 22.7846 33.2439 22.7846H33.3151C33.3151 22.7846 33.4575 22.7846 33.6711 22.7134C33.7422 22.7134 33.7422 22.7134 33.7422 22.7134L36.0202 21.2193C36.2338 21.077 36.3761 20.8636 36.3761 20.579C36.305 20.4367 36.2338 20.2232 36.0202 20.081Z" fill="white"/>
<path d="M22.0678 15.5987V15.6698C22.139 15.741 22.139 15.8121 22.2101 15.8833L23.4915 16.6659C23.5627 16.6659 23.5627 16.737 23.6339 16.737C23.6339 16.737 23.6339 16.737 23.7051 16.737C23.7762 16.737 23.7762 16.737 23.8474 16.737H23.9186H23.9898C24.061 16.737 24.061 16.737 24.1322 16.6659L33.1017 11.0452L33.3864 10.9029L42.5695 16.737C42.6407 16.8082 42.783 16.8082 42.8542 16.8082C42.9966 16.8082 43.0678 16.8082 43.139 16.737L44.4203 15.9544C44.5627 15.8121 44.6339 15.6698 44.6339 15.5275C44.6339 15.3141 44.5627 15.1718 44.3491 15.1006C44.3491 15.1006 33.8135 8.27049 33.6712 8.19935C33.5288 8.1282 33.1729 8.19935 33.1729 8.19935C33.1017 8.19935 33.0305 8.27049 32.9593 8.27049L22.2101 15.1006L22.139 15.1718L22.0678 15.2429V15.3141C22.0678 15.3852 21.9966 15.3852 21.9966 15.4564C21.9966 15.5275 22.0678 15.5987 22.0678 15.5987Z" fill="white"/>
</svg>
