<svg width="439" height="82" viewBox="0 0 439 82" fill="none" xmlns="http://www.w3.org/2000/svg">
<path d="M83.1019 27.7806L81.9556 29.857C81.8124 30.1434 82.0273 30.4298 82.3138 30.4298L137.476 30.7162C138.479 30.7162 139.411 30.215 139.912 29.3558L141.703 26.4918C141.846 26.2054 141.703 25.919 141.345 25.919L86.6838 25.6326C85.1794 25.6326 83.8183 26.4918 83.1019 27.7806Z" fill="#3A3A3A"/>
<path d="M140.413 40.8117L139.124 39.3081C138.336 38.3773 137.261 37.8761 136.043 37.8761L82.3853 37.5897C82.0988 37.5897 81.8839 37.9477 82.0271 38.1625L83.7465 40.8117C84.3912 41.8141 85.4658 42.3869 86.6121 42.3869L136.831 42.6017C137.19 42.6017 133.536 45.1793 133.536 45.4657V52.3393C133.536 52.6973 133.249 52.9121 132.891 52.9121L84.7494 52.6973C83.4599 52.6973 82.2421 53.4849 81.7406 54.6305L80.7376 56.9217C80.5943 57.2081 80.8093 57.4946 81.0958 57.4946L135.47 57.781C136.545 57.781 137.548 57.3513 138.336 56.6353L140.127 54.8453C140.915 54.0577 141.345 53.0553 141.345 51.9813L141.416 43.3177C141.345 42.4585 141.058 41.5277 140.413 40.8117Z" fill="#3A3A3A"/>
<path d="M263.991 29.4273L262.702 27.9237C261.914 26.9929 260.839 26.4917 259.621 26.4917L212.554 26.2769C211.408 26.2769 210.262 26.7781 209.474 27.7089L208.184 29.2125C207.54 29.9285 207.181 30.8593 207.181 31.8617L207.038 52.2677C207.038 53.3417 207.396 54.0577 208.256 55.1317L210.047 56.9217C211.48 58.1389 211.838 58.0673 212.912 58.0673L258.977 58.2821C260.051 58.2821 261.054 57.8525 261.842 57.1365L263.633 55.4181C264.421 54.6305 264.851 53.6281 264.851 52.5541L264.923 32.0765C264.994 31.1457 264.636 30.2149 263.991 29.4273ZM257.042 52.9121C257.042 53.2701 256.756 53.4849 256.398 53.4849L211.336 53.2701C211.336 53.2701 214.918 50.6209 214.918 50.5493L214.99 31.7185C214.99 31.3605 215.277 31.1457 215.635 31.1457L261.269 31.3605C261.627 31.3605 257.114 35.6565 257.186 35.6565L257.042 52.9121Z" fill="#3A3A3A"/>
<path d="M165.129 26.42H163.625H159.111H156.031C155.816 26.42 155.673 26.6348 155.816 26.8496L158.538 31.2173L158.395 57.2081C158.395 57.7809 158.896 58.2821 159.469 58.2821H164.556C165.129 58.2821 165.63 57.7809 165.63 57.2081L165.774 27.0644C165.702 26.7064 165.487 26.42 165.129 26.42Z" fill="#3A3A3A"/>
<path d="M136.831 42.6732C137.118 42.6732 134.324 44.678 133.679 45.394L141.273 42.6732" fill="#1E1E1E"/>
<path d="M277.531 28.7112L276.385 30.7876C276.242 31.074 276.457 31.3604 276.743 31.3604L331.906 31.6468C332.909 31.6468 333.84 31.1456 334.341 30.2864L336.132 27.4224C336.276 27.136 336.132 26.8496 335.774 26.8496L281.113 26.5632C279.609 26.5632 278.248 27.3508 277.531 28.7112Z" fill="#3A3A3A"/>
<path d="M334.843 41.7427L333.553 40.2391C332.765 39.3083 331.691 38.8071 330.473 38.8071L276.815 38.5923C276.528 38.5923 276.313 38.9503 276.457 39.1651L278.176 41.8143C278.821 42.8167 279.895 43.3895 281.042 43.3895L331.261 43.6043C331.619 43.6043 327.965 46.1819 327.965 46.4683V53.3419C327.965 53.6999 327.679 53.9147 327.321 53.9147L279.179 53.6999C277.889 53.6999 276.672 54.4875 276.17 55.6331L275.167 57.9243C275.024 58.2107 275.239 58.4971 275.525 58.4971L329.9 58.7835C330.974 58.7835 331.977 58.3539 332.765 57.6379L334.556 55.8479C335.344 55.0603 335.774 54.0579 335.774 52.9839L335.846 44.3203C335.846 43.3895 335.488 42.4587 334.843 41.7427Z" fill="#3A3A3A"/>
<path d="M331.333 43.6041C331.691 43.6041 328.037 46.1817 328.037 46.4681V53.3417C328.037 53.5565 327.894 53.7713 327.679 53.9145L335.774 53.9861C335.846 53.6997 335.917 53.3417 335.917 53.0553L335.989 44.3917C335.989 44.1053 335.989 43.8905 335.917 43.6041" fill="#2B2B2B"/>
<path d="M331.333 43.6041C331.619 43.6041 328.825 45.6089 328.18 46.3249L335.774 43.6041" fill="#1E1E1E"/>
<path d="M159.469 58.2106H164.556C165.129 58.2106 165.63 57.7094 165.63 57.1366L165.702 41.3846L158.538 31.1458L158.395 57.1366C158.395 57.7094 158.825 58.2106 159.469 58.2106Z" fill="#3A3A3A"/>
<path d="M189.845 26.5632H188.34H183.827H180.746C180.531 26.5632 180.388 26.778 180.531 26.9928L183.254 31.3604L183.111 57.3513C183.111 57.9241 183.612 58.4253 184.185 58.4253H189.272C189.845 58.4253 190.346 57.9241 190.346 57.3513L190.489 27.2076C190.489 26.8496 190.203 26.5632 189.845 26.5632Z" fill="#3A3A3A"/>
<path d="M184.185 58.3538H189.271C189.845 58.3538 190.346 57.8526 190.346 57.2798L190.418 41.5278L183.254 31.2889L183.11 57.2798C183.11 57.8526 183.612 58.3538 184.185 58.3538Z" fill="#3A3A3A"/>
<path d="M211.336 53.27L208.542 55.418L219.79 53.3416L211.336 53.27Z" fill="#1E1E1E"/>
<path d="M261.198 31.3606H264.708L257.114 35.6566" fill="#1E1E1E"/>
<path d="M361.493 33.1506L348.454 26.4201C348.239 26.2769 347.953 26.2769 347.738 26.4201L345.732 27.9237C345.589 27.9953 345.589 28.2101 345.589 28.3533V28.4249V44.1054H349.386V30.5013L361.063 36.9454C361.349 37.0886 361.636 37.0886 361.923 36.9454" fill="#FC103D"/>
<path d="M377.325 28.2818C377.325 28.2102 377.253 28.2102 377.253 28.1386L375.176 26.635C374.889 26.4202 374.603 26.4202 374.316 26.635L361.493 33.1506L361.421 37.1602C361.493 37.1602 361.779 37.0886 361.851 37.017L373.743 30.8594V43.9622C373.743 44.0338 373.815 44.1054 373.886 44.1054H377.253C377.325 44.1054 377.397 44.0338 377.397 43.9622V28.425C377.468 28.3534 377.397 28.2818 377.325 28.2818Z" fill="#BA0024"/>
<path d="M396.238 27.3509V24.9165C396.095 24.9165 396.023 24.9881 395.88 25.0597L382.913 43.8905C382.841 44.0337 382.913 44.1769 383.056 44.1769H386.781C386.853 44.1769 386.925 44.1769 386.925 44.1053L396.238 30.5013V27.3509Z" fill="#FC103D"/>
<path d="M384.346 47.3273L384.417 47.4705V47.1841C384.346 47.2557 384.346 47.3273 384.346 47.3273Z" fill="#ED304A"/>
<path d="M396.453 24.988C396.381 24.9164 396.238 24.8448 396.095 24.8448V27.2793V30.4297L405.838 44.0337C405.838 44.1053 405.909 44.1053 405.981 44.1053H409.921C410.064 44.1053 410.136 43.9621 410.064 43.8189L396.453 24.988Z" fill="#BA0024"/>
<path d="M437.717 25.6326H418.661L412.5 34.869C412.357 35.1554 412.357 35.4418 412.5 35.7282L413.933 37.5898C415.151 37.1602 416.297 36.8022 417.443 36.301L416.798 35.4418L420.667 29.2842H435.998C436.141 29.2842 436.213 29.2126 436.284 29.0694L437.932 26.277C438.147 25.919 438.004 25.6326 437.717 25.6326Z" fill="#FC103D"/>
<path d="M438.362 44.1053L437.001 41.3129C436.929 41.1697 436.786 41.0981 436.643 41.0981H421.312H421.24L416.87 35.4417H412.428C412.428 35.5133 412.5 35.6565 412.572 35.7281L419.306 44.6065C419.377 44.6065 419.377 44.6065 419.449 44.6065H419.521H438.075C438.29 44.6065 438.434 44.3201 438.362 44.1053Z" fill="#BA0024"/>
<path d="M65.1919 20.9072L36.0347 1.79C34.5302 0.715997 32.5243 0.715997 31.0199 1.79L1.79099 20.9072C0.644755 21.6948 0 23.0552 0 24.4156V58.1393C0 59.4997 0.644755 60.8601 1.79099 61.6477L30.9483 81.1945C32.4527 82.2685 34.4586 82.2685 35.963 81.1945L65.1919 61.6477C66.3382 60.8601 66.9829 59.4997 66.9829 58.1393V24.4156C66.9829 23.0552 66.3382 21.6948 65.1919 20.9072Z" fill="#FF103E"/>
<path opacity="0.5" d="M5.22965 24.9165C1.71931 23.0549 1.50439 25.2745 1.50439 25.2745V57.9957C1.50439 59.3561 2.14915 60.5734 3.22374 61.361L31.5213 80.335C32.2377 80.8362 33.0974 81.1226 33.9571 81.1226V43.8905C33.9571 43.8905 8.73998 26.7781 5.22965 24.9165Z" fill="#D30032"/>
<path d="M62.3979 24.9165C65.9082 23.0549 66.1231 25.2745 66.1231 25.2745V57.9957C66.1231 59.3561 65.4784 60.5734 64.4038 61.361L36.1778 80.335C35.4614 80.8362 34.6018 81.1226 33.7421 81.1226V43.8905C33.6705 43.8905 58.8876 26.7781 62.3979 24.9165Z" fill="#D30032"/>
<path d="M57.4548 25.2028L52.4401 21.9808C51.7953 21.5512 51.0073 21.5512 50.4342 21.9808L33.5273 33.0072L16.6203 21.9808C15.9756 21.5512 15.1876 21.6228 14.5428 22.0524L9.67132 25.2028C9.16984 25.5608 8.81165 26.1336 8.81165 26.7064V56.6352C8.81165 57.1364 9.02656 57.566 9.4564 57.8524L16.4054 62.2916C16.8353 62.578 17.4084 62.578 17.8382 62.3632C18.2681 62.0768 18.5546 61.6472 18.5546 61.0744L18.4113 35.012C18.4113 35.012 18.4113 34.8688 18.4113 34.654C18.4113 34.5108 18.4113 34.4392 18.4113 34.296L32.596 43.6756C32.8825 43.8188 33.1691 43.962 33.4556 43.962C33.8138 43.962 34.1004 43.8904 34.3153 43.7472L48.4999 34.5108C48.4999 34.654 48.4999 34.7256 48.4999 34.7972L48.3566 61.146C48.3566 61.6472 48.6432 62.1484 49.073 62.4348C49.288 62.578 49.5029 62.578 49.7894 62.578C50.076 62.578 50.3625 62.5064 50.5775 62.3632L57.5981 57.8524C58.028 57.566 58.2429 57.1364 58.2429 56.6352V26.7064C58.2429 26.1336 57.9563 25.5608 57.4548 25.2028ZM55.8071 56.134L50.864 59.2844L51.0073 34.7972C51.0073 32.0048 50.864 31.5752 50.2193 31.2172C50.2193 31.2172 49.6461 30.8592 49.1447 31.1456C48.6432 31.5036 33.5273 41.3128 33.5273 41.3128L17.9815 31.1456C17.9815 31.1456 17.48 30.716 16.692 31.074C15.904 31.432 15.9756 31.9332 16.0472 34.7972L16.1905 59.2844L11.2474 56.134V27.0644L15.6174 24.272L32.7392 35.37C33.2407 35.6564 33.8138 35.6564 34.3153 35.37L35.5332 34.5824L35.8197 34.3676L51.4371 24.2004L55.8071 26.9928V56.134Z" fill="white"/>
<path d="M40.906 18.7589L34.0287 14.3912L33.8137 14.248H33.4555C33.3839 14.248 33.2406 14.3196 33.169 14.3196L26.7214 18.4009L26.3632 18.6157C26.22 18.6873 26.1483 18.9021 26.1483 19.0453C26.1483 19.1885 26.22 19.4033 26.3632 19.4749L27.5095 20.2625H27.5811C27.6527 20.2625 27.6527 20.3341 27.7244 20.3341H27.796C27.8677 20.3341 27.8677 20.3341 27.9393 20.3341C28.0109 20.3341 28.0109 20.3341 28.0826 20.3341H28.1542C28.2259 20.3341 28.2975 20.2625 28.3691 20.2625L33.3123 17.1837L33.6705 16.9689L39.0434 20.3341C39.1867 20.4057 39.33 20.4773 39.4016 20.4773C39.5449 20.4773 39.6882 20.4057 39.8315 20.3341L40.9777 19.5465C41.121 19.4749 41.1926 19.2601 41.1926 19.1169C41.1926 19.0453 41.121 18.9021 40.906 18.7589Z" fill="white"/>
<path d="M36.2496 21.1932L33.9571 19.6896C33.9571 19.6896 33.6706 19.4748 33.3124 19.618C33.2407 19.618 33.1691 19.6896 33.1691 19.6896L31.808 20.5488L30.9483 21.1216C30.7334 21.2648 30.5901 21.4796 30.5901 21.766C30.5901 21.9808 30.6617 22.1956 30.805 22.2672L30.8766 22.3388L33.1691 23.8424C33.2407 23.8424 33.3124 23.914 33.3124 23.914C33.384 23.914 33.384 23.914 33.4557 23.914H33.5273C33.5273 23.914 33.6706 23.914 33.8855 23.8424C33.9571 23.8424 33.9571 23.8424 33.9571 23.8424L36.2496 22.3388C36.4645 22.1956 36.6078 21.9808 36.6078 21.6944C36.5362 21.5512 36.4645 21.3364 36.2496 21.1932Z" fill="white"/>
<path d="M22.2081 16.6825V16.7541C22.2798 16.8257 22.2798 16.8973 22.3514 16.9689L23.6409 17.7565C23.7125 17.7565 23.7125 17.8281 23.7842 17.8281C23.7842 17.8281 23.7842 17.8281 23.8558 17.8281C23.9275 17.8281 23.9275 17.8281 23.9991 17.8281H24.0707H24.1424C24.214 17.8281 24.214 17.8281 24.2857 17.7565L33.3122 12.1001L33.5988 11.9569L42.8403 17.8281C42.9119 17.8997 43.0552 17.8997 43.1268 17.8997C43.2701 17.8997 43.3418 17.8997 43.4134 17.8281L44.7029 17.0405C44.8462 16.8973 44.9178 16.7541 44.9178 16.6109C44.9178 16.3961 44.8462 16.2529 44.6313 16.1813C44.6313 16.1813 34.0286 9.30765 33.8853 9.23605C33.7421 9.16445 33.3839 9.23605 33.3839 9.23605C33.3122 9.23605 33.2406 9.30765 33.169 9.30765L22.3514 16.1813L22.2798 16.2529L22.2081 16.3245V16.3961C22.2081 16.4677 22.1365 16.4677 22.1365 16.5393C22.1365 16.6109 22.2081 16.6825 22.2081 16.6825Z" fill="white"/>
</svg>
