<svg width="359" height="35" viewBox="0 0 359 35" fill="none" xmlns="http://www.w3.org/2000/svg">
<path d="M3.10187 3.79607L1.95564 5.87247C1.81236 6.15888 2.02728 6.44527 2.31384 6.44527L57.4762 6.73168C58.4792 6.73168 59.4105 6.23047 59.912 5.37127L61.703 2.50727C61.8462 2.22087 61.703 1.93447 61.3448 1.93447L6.68384 1.64807C5.17942 1.64807 3.81827 2.50727 3.10187 3.79607Z" fill="#3A3A3A"/>
<path d="M60.4133 16.8272L59.1238 15.3236C58.3358 14.3928 57.2612 13.8916 56.0433 13.8916L2.38533 13.6052C2.09877 13.6052 1.88386 13.9632 2.02714 14.178L3.74648 16.8272C4.39124 17.8296 5.46583 18.4024 6.61206 18.4024L56.8313 18.6172C57.1895 18.6172 53.5359 21.1948 53.5359 21.4812V28.3548C53.5359 28.7128 53.2494 28.9276 52.8912 28.9276L4.74944 28.7128C3.45993 28.7128 2.24205 29.5004 1.74058 30.646L0.737622 32.9373C0.594343 33.2237 0.809262 33.5101 1.09582 33.5101L55.4702 33.7965C56.5448 33.7965 57.5477 33.3669 58.3358 32.6508L60.1268 30.8608C60.9148 30.0732 61.3446 29.0708 61.3446 27.9968L61.4163 19.3332C61.3446 18.474 61.0581 17.5432 60.4133 16.8272Z" fill="#3A3A3A"/>
<path d="M183.991 5.44289L182.702 3.93928C181.914 3.00848 180.839 2.50728 179.621 2.50728L132.554 2.29248C131.408 2.29248 130.262 2.79368 129.474 3.72448L128.184 5.22809C127.54 5.94409 127.181 6.87489 127.181 7.87729L127.038 28.2833C127.038 29.3573 127.396 30.0733 128.256 31.1473L130.047 32.9373C131.48 34.1545 131.838 34.0829 132.913 34.0829L178.977 34.2977C180.051 34.2977 181.054 33.8681 181.842 33.1521L183.633 31.4337C184.421 30.6461 184.851 29.6437 184.851 28.5697L184.923 8.09209C184.994 7.16129 184.636 6.23049 183.991 5.44289ZM177.042 28.9277C177.042 29.2857 176.756 29.5005 176.398 29.5005L131.336 29.2857C131.336 29.2857 134.918 26.6365 134.918 26.5649L134.99 7.73409C134.99 7.37609 135.277 7.16129 135.635 7.16129L181.269 7.37609C181.627 7.37609 177.114 11.6721 177.186 11.6721L177.042 28.9277Z" fill="#3A3A3A"/>
<path d="M85.129 2.43555H83.6246H79.1113H76.0308C75.8159 2.43555 75.6726 2.65035 75.8159 2.86515L78.5382 7.23275L78.3949 33.2236C78.3949 33.7964 78.8964 34.2976 79.4695 34.2976H84.5559C85.129 34.2976 85.6305 33.7964 85.6305 33.2236L85.7737 3.07995C85.7021 2.72195 85.4872 2.43555 85.129 2.43555Z" fill="#3A3A3A"/>
<path d="M56.8313 18.6887C57.1179 18.6887 54.324 20.6935 53.6792 21.4095L61.273 18.6887" fill="#1E1E1E"/>
<path d="M197.531 4.72674L196.385 6.80314C196.242 7.08954 196.457 7.37594 196.743 7.37594L251.906 7.66234C252.909 7.66234 253.84 7.16114 254.341 6.30194L256.132 3.43794C256.276 3.15154 256.132 2.86513 255.774 2.86513L201.113 2.57874C199.609 2.57874 198.248 3.36634 197.531 4.72674Z" fill="#3A3A3A"/>
<path d="M254.843 17.7582L253.553 16.2546C252.765 15.3238 251.691 14.8226 250.473 14.8226L196.815 14.6078C196.528 14.6078 196.313 14.9658 196.457 15.1806L198.176 17.8298C198.821 18.8322 199.895 19.405 201.042 19.405L251.261 19.6198C251.619 19.6198 247.965 22.1974 247.965 22.4838V29.3574C247.965 29.7154 247.679 29.9302 247.321 29.9302L199.179 29.7154C197.889 29.7154 196.672 30.503 196.17 31.6486L195.167 33.9398C195.024 34.2262 195.239 34.5126 195.525 34.5126L249.9 34.799C250.974 34.799 251.977 34.3694 252.765 33.6534L254.556 31.8634C255.344 31.0758 255.774 30.0734 255.774 28.9994L255.846 20.3358C255.846 19.405 255.488 18.4742 254.843 17.7582Z" fill="#3A3A3A"/>
<path d="M251.333 19.6196C251.691 19.6196 248.037 22.1972 248.037 22.4836V29.3572C248.037 29.572 247.894 29.7868 247.679 29.93L255.774 30.0016C255.846 29.7152 255.917 29.3572 255.917 29.0708L255.989 20.4072C255.989 20.1208 255.989 19.906 255.917 19.6196" fill="#2B2B2B"/>
<path d="M251.333 19.6196C251.619 19.6196 248.825 21.6244 248.18 22.3404L255.774 19.6196" fill="#1E1E1E"/>
<path d="M79.4695 34.2261H84.5559C85.129 34.2261 85.6305 33.7249 85.6305 33.1521L85.7021 17.4001L78.5382 7.16125L78.3949 33.1521C78.3949 33.7249 78.8247 34.2261 79.4695 34.2261Z" fill="#3A3A3A"/>
<path d="M109.845 2.57874H108.34H103.827H100.746C100.531 2.57874 100.388 2.79353 100.531 3.00833L103.254 7.37594L103.11 33.3668C103.11 33.9396 103.612 34.4408 104.185 34.4408H109.271C109.845 34.4408 110.346 33.9396 110.346 33.3668L110.489 3.22313C110.489 2.86513 110.203 2.57874 109.845 2.57874Z" fill="#3A3A3A"/>
<path d="M104.185 34.3693H109.271C109.845 34.3693 110.346 33.8681 110.346 33.2953L110.418 17.5433L103.254 7.30444L103.11 33.2953C103.11 33.8681 103.612 34.3693 104.185 34.3693Z" fill="#3A3A3A"/>
<path d="M131.336 29.2855L128.542 31.4335L139.79 29.3571L131.336 29.2855Z" fill="#1E1E1E"/>
<path d="M181.197 7.3761H184.708L177.114 11.6721" fill="#1E1E1E"/>
<path d="M281.493 9.16606L268.454 2.43565C268.239 2.29245 267.953 2.29245 267.738 2.43565L265.732 3.93925C265.589 4.01085 265.589 4.22565 265.589 4.36885V4.44045V20.1209H269.386V6.51685L281.063 12.9609C281.349 13.1041 281.636 13.1041 281.923 12.9609" fill="#FC103D"/>
<path d="M297.325 4.29728C297.325 4.22568 297.253 4.22568 297.253 4.15408L295.176 2.65048C294.889 2.43568 294.603 2.43568 294.316 2.65048L281.493 9.16609L281.421 13.1757C281.493 13.1757 281.779 13.1041 281.851 13.0325L293.743 6.87489V19.9777C293.743 20.0493 293.815 20.1209 293.886 20.1209H297.253C297.325 20.1209 297.397 20.0493 297.397 19.9777V4.44048C297.468 4.36888 297.397 4.29728 297.325 4.29728Z" fill="#BA0024"/>
<path d="M316.238 3.36641V0.932007C316.095 0.932007 316.023 1.0036 315.88 1.0752L302.913 19.906C302.841 20.0492 302.913 20.1924 303.056 20.1924H306.781C306.853 20.1924 306.925 20.1924 306.925 20.1208L316.238 6.51681V3.36641Z" fill="#FC103D"/>
<path d="M304.346 23.3428L304.417 23.486V23.1996C304.346 23.2712 304.346 23.3428 304.346 23.3428Z" fill="#ED304A"/>
<path d="M316.453 1.00355C316.381 0.931952 316.238 0.860352 316.095 0.860352V3.29476V6.44516L325.838 20.0492C325.838 20.1208 325.909 20.1208 325.981 20.1208H329.921C330.064 20.1208 330.136 19.9776 330.064 19.8344L316.453 1.00355Z" fill="#BA0024"/>
<path d="M357.717 1.64807H338.661L332.5 10.8845C332.357 11.1709 332.357 11.4573 332.5 11.7437L333.933 13.6053C335.151 13.1757 336.297 12.8177 337.443 12.3165L336.798 11.4573L340.667 5.29967H355.998C356.141 5.29967 356.213 5.22808 356.284 5.08487L357.932 2.29247C358.147 1.93447 358.004 1.64807 357.717 1.64807Z" fill="#FC103D"/>
<path d="M358.362 20.1208L357.001 17.3284C356.929 17.1852 356.786 17.1136 356.643 17.1136H341.312H341.24L336.87 11.4572H332.428C332.428 11.5288 332.5 11.672 332.572 11.7436L339.306 20.622C339.377 20.622 339.377 20.622 339.449 20.622H339.521H358.075C358.29 20.622 358.434 20.3356 358.362 20.1208Z" fill="#BA0024"/>
</svg>
