<svg width="31" height="38" viewBox="0 0 31 38" fill="none" xmlns="http://www.w3.org/2000/svg">
<rect x="1" y="18.9412" width="29.7647" height="4.05882" fill="black"/>
<rect x="1" y="9.47058" width="29.7647" height="4.05882" fill="black"/>
<rect x="1" width="29.7647" height="4.05882" fill="black"/>
<path d="M8.41 27V34H7.7V28.4L4.95 33.11H4.6L1.85 28.43V34H1.14V27H1.75L4.79 32.19L7.8 27H8.41ZM15.1408 33.36V34H10.1908V27H14.9908V27.64H10.9308V30.13H14.5508V30.76H10.9308V33.36H15.1408ZM22.2302 27V34H21.6202L17.1202 28.32V34H16.3802V27H16.9902L21.5002 32.68V27H22.2302ZM26.835 34.06C25.9283 34.06 25.2217 33.8 24.715 33.28C24.2083 32.76 23.955 32.0033 23.955 31.01V27H24.695V30.98C24.695 31.7933 24.8783 32.4 25.245 32.8C25.6117 33.2 26.1417 33.4 26.835 33.4C27.535 33.4 28.0683 33.2 28.435 32.8C28.8017 32.4 28.985 31.7933 28.985 30.98V27H29.705V31.01C29.705 32.0033 29.4517 32.76 28.945 33.28C28.445 33.8 27.7417 34.06 26.835 34.06Z" fill="#393939"/>
</svg>
