<svg width="26" height="18" viewBox="0 0 26 18" fill="none" xmlns="http://www.w3.org/2000/svg">
<path d="M0.821655 5.53412L3.39531 8.10777C5.99422 5.50886 9.4495 4.07752 13.125 4.07752C16.8004 4.07752 20.2558 5.50875 22.8544 8.10777L25.4283 5.53412C22.1422 2.24774 17.7727 0.437866 13.125 0.437866C8.47723 0.437866 4.10791 2.24774 0.821655 5.53412Z" fill="black"/>
<path d="M5.39855 10.1112L7.97244 12.6849C9.34873 11.3084 11.1786 10.5504 13.1252 10.5504C15.0716 10.5504 16.9016 11.3084 18.2779 12.6849L20.8518 10.1112C18.7879 8.04738 16.044 6.91063 13.1252 6.91063C10.2062 6.91063 7.4623 8.04726 5.39855 10.1112Z" fill="black"/>
<path d="M13.1251 14.1425C12.1793 14.1425 11.2337 14.5032 10.512 15.2247C10.4867 15.2499 10.4631 15.276 10.4387 15.3017L13.1249 17.9959L15.818 15.3092C15.7915 15.2809 15.7653 15.2523 15.7378 15.2248C15.0163 14.5032 14.0708 14.1425 13.1251 14.1425Z" fill="black"/>
</svg>
