<svg width="24" height="24" viewBox="0 0 24 24" fill="none" xmlns="http://www.w3.org/2000/svg">
<path d="M12 0C6.39493 0 1.79344 4.37579 1.43021 9.8905H0V16.9221H4.25106C4.60768 20.8843 7.94655 24 12 24C16.0535 24 19.3924 20.8843 19.7489 16.9221H24V9.8905H22.5698C22.2066 4.37579 17.6051 0 12 0ZM4.21895 15.5158H1.4063V11.2969H4.21895V15.5158ZM18.3748 16.219C18.3748 16.974 18.2425 17.6986 18.0005 18.3714H14.4589C14.1686 17.5523 13.3865 16.964 12.4692 16.964H11.5309C10.3671 16.964 9.4203 17.9108 9.4203 19.0746C9.4203 20.2383 10.3671 21.1852 11.5309 21.1852H12.4692C13.3865 21.1852 14.1686 20.5967 14.4589 19.7777H17.2866C16.1401 21.4754 14.1983 22.5937 12.0001 22.5937C8.48505 22.5937 5.62534 19.734 5.62534 16.219V10.5937C5.62534 12 5.62534 12.4444 5.62637 10.5134C6.50922 10.8327 7.44948 10.9996 8.39303 10.9996C10.3451 10.9996 12.1974 10.3113 13.666 9.05074C14.8628 9.71341 16.2078 10.0613 17.5883 10.0613C17.8423 10.0613 18.0966 10.0493 18.3493 10.0257C18.3658 10.2129 18.3748 10.4022 18.3748 10.5937L18.3748 16.219ZM13.1735 19.0745C13.1735 19.4628 12.8576 19.7788 12.4692 19.7788H11.5309C11.1425 19.7788 10.8266 19.4629 10.8266 19.0745C10.8266 18.6861 11.1425 18.3702 11.5309 18.3702H12.4691C12.8575 18.3703 13.1735 18.6862 13.1735 19.0745ZM5.8082 9.07666C6.49065 6.29162 9.00766 4.21895 12 4.21895C14.8331 4.21895 17.24 6.07675 18.0675 8.63791C17.9082 8.64916 17.7482 8.65497 17.5883 8.65497C16.2951 8.65497 15.04 8.28592 13.9585 7.58772L13.4862 7.2828L13.0849 7.67641C11.8243 8.91255 10.158 9.59332 8.39303 9.59332C7.49139 9.59332 6.62434 9.41932 5.8082 9.07666ZM12 2.81265C7.94655 2.81265 4.60768 5.92834 4.2511 9.89055H2.83932C3.19965 5.15185 7.17062 1.4063 12 1.4063C16.8294 1.4063 20.8004 5.15185 21.1607 9.8905H19.7489C19.3924 5.92834 16.0535 2.81265 12 2.81265ZM22.5937 15.5158H19.7811V11.2969H22.5937V15.5158Z" fill="black"/>
</svg>
