<svg width="25" height="25" viewBox="0 0 25 25" fill="none" xmlns="http://www.w3.org/2000/svg">
<path d="M3.26196 6.11768H5.26196H21.262" stroke="black" stroke-width="2" stroke-linecap="round" stroke-linejoin="round"/>
<path d="M8.26196 6.11768V4.11768C8.26196 3.58724 8.47268 3.07853 8.84775 2.70346C9.22282 2.32839 9.73153 2.11768 10.262 2.11768H14.262C14.7924 2.11768 15.3011 2.32839 15.6762 2.70346C16.0512 3.07853 16.262 3.58724 16.262 4.11768V6.11768M19.262 6.11768V20.1177C19.262 20.6481 19.0512 21.1568 18.6762 21.5319C18.3011 21.907 17.7924 22.1177 17.262 22.1177H7.26196C6.73153 22.1177 6.22282 21.907 5.84775 21.5319C5.47268 21.1568 5.26196 20.6481 5.26196 20.1177V6.11768H19.262Z" stroke="black" stroke-width="2" stroke-linecap="round" stroke-linejoin="round"/>
<path d="M10.262 11.1177V17.1177" stroke="black" stroke-width="2" stroke-linecap="round" stroke-linejoin="round"/>
<path d="M14.262 11.1177V17.1177" stroke="black" stroke-width="2" stroke-linecap="round" stroke-linejoin="round"/>
</svg>
